<svg width="23" height="24" viewBox="0 0 23 24" fill="none" xmlns="http://www.w3.org/2000/svg">
  <path d="M11.552 24C9.73864 24 8.14927 23.597 6.78395 22.7909C5.43995 21.9849 4.39462 20.8262 3.64795 19.3149C2.90129 17.7834 2.52795 15.9597 2.52795 13.8438C2.52795 12.1108 2.77329 10.4282 3.26395 8.79597C3.75462 7.1436 4.49062 5.66246 5.47195 4.35264C6.45327 3.02267 7.65864 1.96474 9.08796 1.17884C10.5386 0.392947 12.224 0 14.144 0C15.616 0 16.8746 0.27204 17.92 0.816121C18.9653 1.3602 19.7333 2.10579 20.224 3.0529C20.7146 4 20.8426 5.08816 20.608 6.31738L18.432 17.9244H16V16.534H15.872C15.5306 17.0378 15.0933 17.4408 14.56 17.7431C14.0266 18.0453 13.3013 18.1965 12.384 18.1965C11.0613 18.1965 9.95196 17.7128 9.05596 16.7456C8.18127 15.7783 7.74395 14.4887 7.74395 12.8766C7.74395 11.5869 7.98927 10.4081 8.47996 9.34005C8.97064 8.27202 9.69596 7.41564 10.656 6.77078C11.6373 6.12592 12.8426 5.80353 14.272 5.80353C15.0613 5.80353 15.744 5.96474 16.32 6.28715C16.896 6.58942 17.3226 7.0025 17.6 7.52645L17.824 6.25693C18.0373 5.16877 17.76 4.26196 16.992 3.53652C16.224 2.81108 15.1466 2.44836 13.76 2.44836C12.5226 2.44836 11.392 2.76071 10.368 3.38539C9.36527 3.98992 8.50127 4.82619 7.77595 5.89421C7.05064 6.94205 6.48527 8.13098 6.07995 9.46096C5.69595 10.7909 5.50395 12.1713 5.50395 13.602C5.50395 15.1335 5.73862 16.5038 6.20795 17.7128C6.69864 18.9018 7.42395 19.8388 8.38396 20.5239C9.36527 21.209 10.5813 21.5516 12.032 21.5516H16.32L15.872 24H11.552ZM13.152 15.9295C13.9413 15.9295 14.6133 15.7179 15.168 15.2947C15.7226 14.8514 16.1386 14.267 16.416 13.5416C16.7146 12.796 16.864 11.9799 16.864 11.0932C16.864 10.1461 16.6186 9.4106 16.128 8.88665C15.6586 8.34257 15.0613 8.07053 14.336 8.07053C13.1626 8.07053 12.2346 8.52393 11.552 9.43073C10.8906 10.3174 10.56 11.4156 10.56 12.7254C10.56 13.7531 10.8053 14.5491 11.296 15.1134C11.808 15.6574 12.4266 15.9295 13.152 15.9295Z"/>
  <path d="M21.3716 16.6856L21.7931 14.2259H18.768L18.288 16.6856H21.3716Z"/>
  <path d="M22.7883 8.77905H19.744L19.248 11.2738H22.3316L22.7883 8.77905Z"/>
  <path d="M0.421524 14.2259L0 16.6856H2.92799L2.52915 14.2259H0.421524Z"/>
  <path d="M0.896027 11.2738H2.82801L3.4603 8.77905H1.35268L0.896027 11.2738Z"/>
  <style>
    path { fill: #000; }
    @media (prefers-color-scheme: dark) {
      path { fill: #FFF; }
    }
  </style>
</svg>
