<svg width="522" height="67" viewBox="0 0 522 67" fill="none" xmlns="http://www.w3.org/2000/svg">
<path d="M66.72 54.504C64.928 54.504 63.2853 54.1867 61.792 53.552C60.336 52.9173 59.0667 51.9467 57.984 50.64C56.9387 49.3333 56.136 47.7093 55.576 45.768C55.016 43.8267 54.736 41.568 54.736 38.992C54.736 35.52 55.2213 32.6453 56.192 30.368C57.2 28.0533 58.6 26.3173 60.392 25.16C62.2213 24.0027 64.3307 23.424 66.72 23.424C68.288 23.424 69.688 23.6667 70.92 24.152C72.1893 24.6373 73.272 25.3093 74.168 26.168C75.1013 27.0267 75.792 28.0347 76.24 29.192H76.688V13.176H84.92V54H76.968L76.688 48.736H76.24C75.568 50.4907 74.392 51.8907 72.712 52.936C71.032 53.9813 69.0347 54.504 66.72 54.504ZM69.856 47.84C71.3867 47.84 72.6373 47.4853 73.608 46.776C74.616 46.0667 75.3627 45.152 75.848 44.032C76.3333 42.8747 76.576 41.6613 76.576 40.392V37.536C76.576 36.5653 76.4453 35.632 76.184 34.736C75.9227 33.84 75.512 33.056 74.952 32.384C74.392 31.6747 73.6827 31.1147 72.824 30.704C71.9653 30.2933 70.976 30.088 69.856 30.088C68.512 30.088 67.336 30.4053 66.328 31.04C65.32 31.6747 64.536 32.6453 63.976 33.952C63.416 35.2587 63.136 36.9387 63.136 38.992C63.136 40.9707 63.416 42.632 63.976 43.976C64.536 45.2827 65.32 46.2533 66.328 46.888C67.336 47.5227 68.512 47.84 69.856 47.84ZM105.238 54.504C102.96 54.504 100.907 54.168 99.0775 53.496C97.2482 52.7867 95.6615 51.76 94.3175 50.416C92.9735 49.072 91.9468 47.448 91.2375 45.544C90.5282 43.6027 90.1735 41.4187 90.1735 38.992C90.1735 35.8933 90.7708 33.1867 91.9655 30.872C93.1602 28.52 94.8775 26.6907 97.1175 25.384C99.3575 24.0773 102.064 23.424 105.238 23.424C107.478 23.424 109.512 23.7787 111.342 24.488C113.171 25.1973 114.739 26.224 116.046 27.568C117.39 28.912 118.416 30.536 119.126 32.44C119.872 34.344 120.246 36.528 120.246 38.992C120.246 42.0533 119.648 44.76 118.454 47.112C117.259 49.4267 115.542 51.2373 113.302 52.544C111.099 53.8507 108.411 54.504 105.238 54.504ZM105.182 47.84C106.526 47.84 107.702 47.5227 108.71 46.888C109.755 46.216 110.539 45.2267 111.062 43.92C111.622 42.6133 111.902 40.9707 111.902 38.992C111.902 37.4987 111.752 36.2107 111.454 35.128C111.155 34.008 110.707 33.0747 110.11 32.328C109.512 31.5813 108.803 31.04 107.982 30.704C107.16 30.3307 106.246 30.144 105.238 30.144C103.894 30.144 102.699 30.4613 101.654 31.096C100.646 31.7307 99.8615 32.7013 99.3015 34.008C98.7415 35.3147 98.4615 36.976 98.4615 38.992C98.4615 40.4853 98.6108 41.792 98.9095 42.912C99.2455 43.9947 99.7122 44.9093 100.31 45.656C100.907 46.3653 101.616 46.9067 102.438 47.28C103.259 47.6533 104.174 47.84 105.182 47.84ZM125.489 54V23.984H133.441L133.721 29.416H134.057C134.841 27.4 136.054 25.9067 137.697 24.936C139.377 23.928 141.225 23.424 143.241 23.424C145.332 23.424 147.236 23.928 148.953 24.936C150.708 25.944 151.977 27.68 152.761 30.144H153.209C153.956 27.904 155.225 26.224 157.017 25.104C158.809 23.984 160.844 23.424 163.121 23.424C165.062 23.424 166.798 23.8347 168.329 24.656C169.897 25.4773 171.129 26.8027 172.025 28.632C172.921 30.424 173.369 32.832 173.369 35.856V54H165.137V37.648C165.137 35.968 164.95 34.568 164.577 33.448C164.241 32.328 163.662 31.5067 162.841 30.984C162.057 30.424 161.049 30.144 159.817 30.144C158.473 30.144 157.334 30.48 156.401 31.152C155.468 31.824 154.758 32.7013 154.273 33.784C153.788 34.8667 153.545 36.0427 153.545 37.312V54H145.313V37.648C145.313 35.968 145.126 34.568 144.753 33.448C144.38 32.328 143.801 31.5067 143.017 30.984C142.233 30.424 141.225 30.144 139.993 30.144C138.649 30.144 137.51 30.48 136.577 31.152C135.644 31.824 134.934 32.7013 134.449 33.784C133.964 34.8667 133.721 36.0427 133.721 37.312V54H125.489ZM190.314 54.504C188.522 54.504 186.879 54.1867 185.386 53.552C183.93 52.9173 182.66 51.9467 181.578 50.64C180.532 49.3333 179.73 47.7093 179.17 45.768C178.61 43.8267 178.33 41.568 178.33 38.992C178.33 35.52 178.815 32.6453 179.786 30.368C180.794 28.0533 182.194 26.3173 183.986 25.16C185.815 24.0027 187.924 23.424 190.314 23.424C191.882 23.424 193.282 23.6667 194.514 24.152C195.783 24.6373 196.866 25.3093 197.762 26.168C198.695 27.0267 199.386 28.0347 199.834 29.192H200.282L200.618 23.984H208.514V54H200.282V48.736H199.834C199.162 50.4907 197.986 51.8907 196.306 52.936C194.626 53.9813 192.628 54.504 190.314 54.504ZM193.45 47.84C194.98 47.84 196.231 47.4853 197.202 46.776C198.21 46.0667 198.956 45.152 199.442 44.032C199.927 42.8747 200.17 41.6613 200.17 40.392V37.536C200.17 36.2293 199.927 35.016 199.442 33.896C198.956 32.776 198.21 31.8613 197.202 31.152C196.231 30.4427 194.98 30.088 193.45 30.088C192.106 30.088 190.93 30.4053 189.922 31.04C188.914 31.6747 188.13 32.6453 187.57 33.952C187.01 35.2587 186.73 36.9387 186.73 38.992C186.73 40.9707 187.01 42.632 187.57 43.976C188.13 45.2827 188.914 46.2533 189.922 46.888C190.93 47.5227 192.106 47.84 193.45 47.84ZM215.559 54V23.984H223.791V54H215.559ZM215.559 20.12V13.176H223.791V20.12H215.559ZM230.872 54V23.984H238.768L239.104 29.416H239.44C240.261 27.4 241.53 25.9067 243.248 24.936C244.965 23.928 246.888 23.424 249.016 23.424C250.509 23.424 251.89 23.6667 253.16 24.152C254.466 24.6 255.586 25.3093 256.52 26.28C257.49 27.2507 258.237 28.5387 258.76 30.144C259.32 31.712 259.6 33.616 259.6 35.856V54H251.368V37.648C251.368 35.968 251.162 34.568 250.752 33.448C250.378 32.328 249.781 31.5067 248.96 30.984C248.138 30.424 247.056 30.144 245.712 30.144C244.293 30.144 243.098 30.48 242.128 31.152C241.157 31.824 240.41 32.7013 239.888 33.784C239.365 34.8667 239.104 36.0427 239.104 37.312V54H230.872ZM265.636 54V46.44H273.532V54H265.636ZM292.976 54.504C290.736 54.504 288.701 54.1493 286.872 53.44C285.042 52.6933 283.456 51.6293 282.112 50.248C280.805 48.8667 279.797 47.224 279.088 45.32C278.416 43.416 278.08 41.3067 278.08 38.992C278.08 35.8187 278.696 33.0747 279.928 30.76C281.16 28.4453 282.914 26.6533 285.192 25.384C287.469 24.0773 290.157 23.424 293.256 23.424C295.832 23.424 298.109 23.9093 300.088 24.88C302.104 25.8507 303.709 27.1947 304.904 28.912C306.098 30.6293 306.752 32.6267 306.864 34.904H298.8C298.65 33.8587 298.296 32.9813 297.736 32.272C297.213 31.5627 296.541 31.04 295.72 30.704C294.936 30.3307 294.04 30.144 293.032 30.144C291.613 30.144 290.4 30.5173 289.392 31.264C288.384 31.9733 287.637 33 287.152 34.344C286.666 35.6507 286.424 37.2 286.424 38.992C286.424 40.9707 286.685 42.6133 287.208 43.92C287.768 45.1893 288.533 46.16 289.504 46.832C290.512 47.4667 291.669 47.784 292.976 47.784C294.17 47.784 295.178 47.5787 296 47.168C296.858 46.7573 297.53 46.1787 298.016 45.432C298.538 44.6853 298.837 43.8453 298.912 42.912H306.92C306.808 45.264 306.136 47.3173 304.904 49.072C303.709 50.7893 302.085 52.1333 300.032 53.104C297.978 54.0373 295.626 54.504 292.976 54.504ZM325.245 54.504C322.968 54.504 320.915 54.168 319.085 53.496C317.256 52.7867 315.669 51.76 314.325 50.416C312.981 49.072 311.955 47.448 311.245 45.544C310.536 43.6027 310.181 41.4187 310.181 38.992C310.181 35.8933 310.779 33.1867 311.973 30.872C313.168 28.52 314.885 26.6907 317.125 25.384C319.365 24.0773 322.072 23.424 325.245 23.424C327.485 23.424 329.52 23.7787 331.349 24.488C333.179 25.1973 334.747 26.224 336.053 27.568C337.397 28.912 338.424 30.536 339.133 32.44C339.88 34.344 340.253 36.528 340.253 38.992C340.253 42.0533 339.656 44.76 338.461 47.112C337.267 49.4267 335.549 51.2373 333.309 52.544C331.107 53.8507 328.419 54.504 325.245 54.504ZM325.189 47.84C326.533 47.84 327.709 47.5227 328.717 46.888C329.763 46.216 330.547 45.2267 331.069 43.92C331.629 42.6133 331.909 40.9707 331.909 38.992C331.909 37.4987 331.76 36.2107 331.461 35.128C331.163 34.008 330.715 33.0747 330.117 32.328C329.52 31.5813 328.811 31.04 327.989 30.704C327.168 30.3307 326.253 30.144 325.245 30.144C323.901 30.144 322.707 30.4613 321.661 31.096C320.653 31.7307 319.869 32.7013 319.309 34.008C318.749 35.3147 318.469 36.976 318.469 38.992C318.469 40.4853 318.619 41.792 318.917 42.912C319.253 43.9947 319.72 44.9093 320.317 45.656C320.915 46.3653 321.624 46.9067 322.445 47.28C323.267 47.6533 324.181 47.84 325.189 47.84ZM345.497 54V23.984H353.449L353.729 29.416H354.065C354.849 27.4 356.062 25.9067 357.705 24.936C359.385 23.928 361.233 23.424 363.249 23.424C365.339 23.424 367.243 23.928 368.961 24.936C370.715 25.944 371.985 27.68 372.769 30.144H373.217C373.963 27.904 375.233 26.224 377.025 25.104C378.817 23.984 380.851 23.424 383.129 23.424C385.07 23.424 386.806 23.8347 388.337 24.656C389.905 25.4773 391.137 26.8027 392.033 28.632C392.929 30.424 393.377 32.832 393.377 35.856V54H385.145V37.648C385.145 35.968 384.958 34.568 384.585 33.448C384.249 32.328 383.67 31.5067 382.849 30.984C382.065 30.424 381.057 30.144 379.825 30.144C378.481 30.144 377.342 30.48 376.409 31.152C375.475 31.824 374.766 32.7013 374.281 33.784C373.795 34.8667 373.553 36.0427 373.553 37.312V54H365.321V37.648C365.321 35.968 365.134 34.568 364.761 33.448C364.387 32.328 363.809 31.5067 363.025 30.984C362.241 30.424 361.233 30.144 360.001 30.144C358.657 30.144 357.518 30.48 356.585 31.152C355.651 31.824 354.942 32.7013 354.457 33.784C353.971 34.8667 353.729 36.0427 353.729 37.312V54H345.497ZM398.282 58.592L414.97 13.176H422.866L406.122 58.592H398.282ZM425.538 63.352V56.576H429.01C429.869 56.576 430.578 56.464 431.138 56.24C431.736 56.0533 432.221 55.7173 432.594 55.232C433.005 54.784 433.341 54.2053 433.602 53.496L435.058 49.744V53.384L422.85 23.984H431.866L437.354 40.056L438.306 43.248H438.586L439.482 40.056L444.634 23.984H453.426L441.722 55.4C440.976 57.4907 440.061 59.1147 438.978 60.272C437.896 61.4293 436.645 62.232 435.226 62.68C433.845 63.128 432.296 63.352 430.578 63.352H425.538ZM469.292 54.504C467.015 54.504 464.962 54.168 463.132 53.496C461.303 52.7867 459.716 51.76 458.372 50.416C457.028 49.072 456.002 47.448 455.292 45.544C454.583 43.6027 454.228 41.4187 454.228 38.992C454.228 35.8933 454.826 33.1867 456.02 30.872C457.215 28.52 458.932 26.6907 461.172 25.384C463.412 24.0773 466.119 23.424 469.292 23.424C471.532 23.424 473.567 23.7787 475.396 24.488C477.226 25.1973 478.794 26.224 480.1 27.568C481.444 28.912 482.471 30.536 483.18 32.44C483.927 34.344 484.3 36.528 484.3 38.992C484.3 42.0533 483.703 44.76 482.508 47.112C481.314 49.4267 479.596 51.2373 477.356 52.544C475.154 53.8507 472.466 54.504 469.292 54.504ZM469.236 47.84C470.58 47.84 471.756 47.5227 472.764 46.888C473.81 46.216 474.594 45.2267 475.116 43.92C475.676 42.6133 475.956 40.9707 475.956 38.992C475.956 37.4987 475.807 36.2107 475.508 35.128C475.21 34.008 474.762 33.0747 474.164 32.328C473.567 31.5813 472.858 31.04 472.036 30.704C471.215 30.3307 470.3 30.144 469.292 30.144C467.948 30.144 466.754 30.4613 465.708 31.096C464.7 31.7307 463.916 32.7013 463.356 34.008C462.796 35.3147 462.516 36.976 462.516 38.992C462.516 40.4853 462.666 41.792 462.964 42.912C463.3 43.9947 463.767 44.9093 464.364 45.656C464.962 46.3653 465.671 46.9067 466.492 47.28C467.314 47.6533 468.228 47.84 469.236 47.84ZM499.96 54.504C497.645 54.504 495.685 54.056 494.08 53.16C492.474 52.264 491.261 50.9387 490.44 49.184C489.656 47.392 489.264 45.2267 489.264 42.688V23.984H497.496V40.504C497.496 42.072 497.682 43.3973 498.056 44.48C498.466 45.5627 499.082 46.4027 499.904 47C500.762 47.56 501.864 47.84 503.208 47.84C504.589 47.84 505.765 47.504 506.736 46.832C507.706 46.16 508.453 45.2827 508.976 44.2C509.498 43.08 509.76 41.8667 509.76 40.56V23.984H517.992V54H510.096L509.76 48.512H509.368C508.658 50.4533 507.445 51.9467 505.728 52.992C504.048 54 502.125 54.504 499.96 54.504Z" fill="black"/>
<path d="M24.4666 61C20.6889 61 17.3777 60.1603 14.5333 58.4811C11.7333 56.8019 9.55552 54.3879 7.99996 51.2393C6.4444 48.0487 5.66663 44.2494 5.66663 39.8413C5.66663 36.2309 6.17773 32.7254 7.19996 29.3249C8.22219 25.8825 9.75552 22.7968 11.8 20.068C13.8444 17.2972 16.3556 15.0932 19.3333 13.4559C22.3556 11.8186 25.8666 11 29.8666 11C32.9333 11 35.5556 11.5668 37.7333 12.7003C39.911 13.8338 41.511 15.3871 42.5333 17.3602C43.5556 19.3333 43.8222 21.6003 43.3333 24.1612L38.8 48.3426H33.7333V45.4458H33.4666C32.7556 46.4953 31.8444 47.335 30.7333 47.9647C29.6222 48.5945 28.111 48.9093 26.2 48.9093C23.4444 48.9093 21.1333 47.9018 19.2666 45.8866C17.4444 43.8715 16.5333 41.1848 16.5333 37.8262C16.5333 35.1394 17.0444 32.6835 18.0666 30.4584C19.0889 28.2334 20.6 26.4492 22.6 25.1058C24.6444 23.7623 27.1556 23.0907 30.1333 23.0907C31.7777 23.0907 33.2 23.4265 34.4 24.0982C35.6 24.728 36.4889 25.5885 37.0666 26.6801L37.5333 24.0353C37.9777 21.7683 37.4 19.8791 35.8 18.3678C34.2 16.8564 31.9556 16.1008 29.0666 16.1008C26.4889 16.1008 24.1333 16.7515 22 18.0529C19.911 19.3123 18.111 21.0546 16.6 23.2796C15.0889 25.4626 13.911 27.9395 13.0666 30.7103C12.2666 33.4811 11.8666 36.3568 11.8666 39.3375C11.8666 42.5281 12.3555 45.3829 13.3333 47.9018C14.3556 50.3787 15.8666 52.3309 17.8666 53.7582C19.911 55.1855 22.4444 55.8992 25.4666 55.8992H34.4L33.4666 61H24.4666ZM27.8 44.1864C29.4444 44.1864 30.8444 43.7456 32 42.864C33.1556 41.9404 34.0222 40.7229 34.6 39.2116C35.2222 37.6583 35.5333 35.9581 35.5333 34.1108C35.5333 32.1377 35.0222 30.6054 34 29.5139C33.0222 28.3804 31.7777 27.8136 30.2666 27.8136C27.8222 27.8136 25.8889 28.7582 24.4666 30.6474C23.0889 32.4946 22.4 34.7825 22.4 37.5113C22.4 39.6524 22.911 41.3107 23.9333 42.4861C25 43.6196 26.2889 44.1864 27.8 44.1864Z" fill="black"/>
<path d="M44.9242 45.7616L45.8024 40.6373H39.5L38.5 45.7616H44.9242Z" fill="black"/>
<path d="M47.8756 29.2897H41.5333L40.5 34.4871H46.9243L47.8756 29.2897Z" fill="black"/>
<path d="M1.2782 40.6373L0.400024 45.7616H6.5L5.66908 40.6373H1.2782Z" fill="black"/>
<path d="M2.26672 34.4871H6.2917L7.60896 29.2897H3.21808L2.26672 34.4871Z" fill="black"/>
</svg>
