<svg width="87" height="29" viewBox="0 0 87 29" fill="none" xmlns="http://www.w3.org/2000/svg">
<path d="M37.84 23.192C36.896 23.192 36.04 23.04 35.272 22.736C34.504 22.416 33.84 21.96 33.28 21.368C32.72 20.776 32.288 20.064 31.984 19.232C31.68 18.4 31.528 17.472 31.528 16.448C31.528 15.072 31.792 13.88 32.32 12.872C32.848 11.864 33.592 11.088 34.552 10.544C35.512 9.984 36.624 9.704 37.888 9.704C38.512 9.704 39.104 9.776 39.664 9.92C40.224 10.064 40.72 10.28 41.152 10.568C41.6 10.84 41.96 11.184 42.232 11.6H42.424V5.504H47.728V23H42.688L42.544 21.32H42.352C41.984 21.864 41.432 22.312 40.696 22.664C39.96 23.016 39.008 23.192 37.84 23.192ZM39.568 19.232C40.16 19.232 40.664 19.12 41.08 18.896C41.512 18.672 41.84 18.36 42.064 17.96C42.288 17.56 42.4 17.104 42.4 16.592V16.304C42.4 15.92 42.336 15.568 42.208 15.248C42.08 14.928 41.896 14.656 41.656 14.432C41.416 14.192 41.12 14.008 40.768 13.88C40.416 13.752 40.016 13.688 39.568 13.688C39.024 13.688 38.544 13.792 38.128 14C37.728 14.208 37.416 14.52 37.192 14.936C36.968 15.336 36.856 15.84 36.856 16.448C36.856 17.04 36.968 17.544 37.192 17.96C37.416 18.376 37.728 18.696 38.128 18.92C38.544 19.128 39.024 19.232 39.568 19.232ZM56.8531 23.24C55.9091 23.24 55.0451 23.088 54.2611 22.784C53.4931 22.464 52.8291 22.008 52.2691 21.416C51.7091 20.824 51.2771 20.112 50.9731 19.28C50.6691 18.448 50.5171 17.52 50.5171 16.496C50.5171 15.104 50.7811 13.904 51.3091 12.896C51.8371 11.888 52.5731 11.112 53.5171 10.568C54.4771 10.024 55.5891 9.752 56.8531 9.752C57.6371 9.752 58.3171 9.832 58.8931 9.992C59.4691 10.152 59.9571 10.376 60.3571 10.664C60.7731 10.936 61.1011 11.264 61.3411 11.648H61.5331L61.6771 9.944H66.7171V23H61.4131V21.344H61.2211C60.8211 21.936 60.2291 22.4 59.4451 22.736C58.6611 23.072 57.7971 23.24 56.8531 23.24ZM58.5571 19.28C59.1491 19.28 59.6531 19.168 60.0691 18.944C60.5011 18.72 60.8291 18.408 61.0531 18.008C61.2771 17.608 61.3891 17.152 61.3891 16.64V16.352C61.3891 15.824 61.2771 15.368 61.0531 14.984C60.8291 14.584 60.5011 14.272 60.0691 14.048C59.6531 13.824 59.1491 13.712 58.5571 13.712C58.0291 13.712 57.5571 13.816 57.1411 14.024C56.7411 14.232 56.4211 14.544 56.1811 14.96C55.9571 15.376 55.8451 15.888 55.8451 16.496C55.8451 17.104 55.9571 17.616 56.1811 18.032C56.4051 18.448 56.7171 18.76 57.1171 18.968C57.5331 19.176 58.0131 19.28 58.5571 19.28ZM69.9867 27.008V9.944H75.0027L75.1707 11.648H75.3387C75.7227 11.088 76.2747 10.632 76.9947 10.28C77.7307 9.928 78.6827 9.752 79.8507 9.752C80.7947 9.752 81.6507 9.912 82.4187 10.232C83.1867 10.536 83.8507 10.984 84.4107 11.576C84.9707 12.152 85.4027 12.856 85.7067 13.688C86.0107 14.52 86.1627 15.456 86.1627 16.496C86.1627 17.872 85.8987 19.064 85.3707 20.072C84.8427 21.08 84.0987 21.864 83.1387 22.424C82.1947 22.968 81.0827 23.24 79.8027 23.24C79.1787 23.24 78.5867 23.16 78.0267 23C77.4667 22.856 76.9707 22.648 76.5387 22.376C76.1067 22.088 75.7467 21.744 75.4587 21.344H75.2907V27.008H69.9867ZM78.1467 19.28C78.6907 19.28 79.1627 19.176 79.5627 18.968C79.9627 18.76 80.2747 18.448 80.4987 18.032C80.7387 17.616 80.8587 17.104 80.8587 16.496C80.8587 15.888 80.7467 15.384 80.5227 14.984C80.2987 14.568 79.9787 14.256 79.5627 14.048C79.1627 13.824 78.6907 13.712 78.1467 13.712C77.5547 13.712 77.0427 13.824 76.6107 14.048C76.1787 14.272 75.8507 14.584 75.6267 14.984C75.4027 15.368 75.2907 15.824 75.2907 16.352V16.64C75.2907 17.024 75.3547 17.384 75.4827 17.72C75.6107 18.04 75.7947 18.32 76.0347 18.56C76.2907 18.784 76.5947 18.96 76.9467 19.088C77.2987 19.216 77.6987 19.28 78.1467 19.28Z" fill="black"/>
<path d="M11.552 28C9.73864 28 8.14927 27.597 6.78395 26.7909C5.43995 25.9849 4.39462 24.8262 3.64795 23.3149C2.90129 21.7834 2.52795 19.9597 2.52795 17.8438C2.52795 16.1108 2.77329 14.4282 3.26395 12.796C3.75462 11.1436 4.49062 9.66246 5.47195 8.35264C6.45327 7.02267 7.65864 5.96474 9.08796 5.17884C10.5386 4.39295 12.224 4 14.144 4C15.616 4 16.8746 4.27204 17.92 4.81612C18.9653 5.3602 19.7333 6.10579 20.224 7.0529C20.7146 8 20.8426 9.08816 20.608 10.3174L18.432 21.9244H16V20.534H15.872C15.5306 21.0378 15.0933 21.4408 14.56 21.7431C14.0266 22.0453 13.3013 22.1965 12.384 22.1965C11.0613 22.1965 9.95196 21.7128 9.05596 20.7456C8.18127 19.7783 7.74395 18.4887 7.74395 16.8766C7.74395 15.5869 7.98927 14.4081 8.47996 13.3401C8.97064 12.272 9.69596 11.4156 10.656 10.7708C11.6373 10.1259 12.8426 9.80353 14.272 9.80353C15.0613 9.80353 15.744 9.96474 16.32 10.2872C16.896 10.5894 17.3226 11.0025 17.6 11.5264L17.824 10.2569C18.0373 9.16877 17.76 8.26196 16.992 7.53652C16.224 6.81108 15.1466 6.44836 13.76 6.44836C12.5226 6.44836 11.392 6.76071 10.368 7.38539C9.36527 7.98992 8.50127 8.82619 7.77595 9.89421C7.05064 10.942 6.48527 12.131 6.07995 13.461C5.69595 14.7909 5.50395 16.1713 5.50395 17.602C5.50395 19.1335 5.73862 20.5038 6.20795 21.7128C6.69864 22.9018 7.42395 23.8388 8.38396 24.5239C9.36527 25.209 10.5813 25.5516 12.032 25.5516H16.32L15.872 28H11.552ZM13.152 19.9295C13.9413 19.9295 14.6133 19.7179 15.168 19.2947C15.7226 18.8514 16.1386 18.267 16.416 17.5416C16.7146 16.796 16.864 15.9799 16.864 15.0932C16.864 14.1461 16.6186 13.4106 16.128 12.8866C15.6586 12.3426 15.0613 12.0705 14.336 12.0705C13.1626 12.0705 12.2346 12.5239 11.552 13.4307C10.8906 14.3174 10.56 15.4156 10.56 16.7254C10.56 17.7531 10.8053 18.5491 11.296 19.1134C11.808 19.6574 12.4266 19.9295 13.152 19.9295Z" fill="black"/>
<path d="M21.3716 20.6856L21.7931 18.2259H18.768L18.288 20.6856H21.3716Z" fill="black"/>
<path d="M22.7883 12.7791H19.744L19.248 15.2738H22.3316L22.7883 12.7791Z" fill="black"/>
<path d="M0.421524 18.2259L0 20.6856H2.92799L2.52915 18.2259H0.421524Z" fill="black"/>
<path d="M0.896027 15.2738H2.82801L3.4603 12.7791H1.35268L0.896027 15.2738Z" fill="black"/>
</svg>
